<svg aria-hidden="true" style="position: absolute; width: 0; height: 0; overflow: hidden;" version="1.1" xmlns="http://www.w3.org/2000/svg" xmlns:xlink="http://www.w3.org/1999/xlink">
<defs>
<symbol id="icon-arrowdown" viewBox="0 0 32 32">
<path d="M16 31.68l-7.482-7.482 0.864-0.864 6.042 6.045v-29.059h1.152v29.059l6.042-6.042 0.864 0.864-7.482 7.478z"></path>
</symbol>
<symbol id="icon-logo" viewBox="0 0 77 32">
<path d="M53.202 6.898c-0.179 0-0.334 0-0.49 0-0.695-0-1.39-0.004-2.085 0.003-0.15 0.001-0.217-0.043-0.217-0.195 0.001-0.154-0.017-0.308-0.027-0.481 0.181-0.042 0.356-0.079 0.529-0.123 2.163-0.55 3.579-1.93 4.404-3.926 0.254-0.615 0.413-1.272 0.578-1.918 0.060-0.237 0.182-0.246 0.367-0.236 0.221 0.013 0.137 0.178 0.137 0.28 0.004 6.392 0.002 12.785 0.009 19.177 0.001 0.361 0.047 0.731 0.133 1.082 0.127 0.514 0.501 0.792 1.056 0.858-0.016 0.225-0.031 0.438-0.048 0.683-1.257-0.037-2.48-0.133-3.465-1.008-0.63-0.561-0.86-1.307-0.879-2.121-0.014-0.576-0.003-1.152-0.003-1.728 0-3.348 0-6.696 0-10.044 0-0.091 0-0.183 0-0.302z"></path>
<path d="M2.817 6.897c-0.861 0-1.681-0.007-2.502 0.005-0.21 0.003-0.305-0.050-0.292-0.267 0.008-0.13-0.014-0.261-0.023-0.404 0.295-0.076 0.586-0.138 0.869-0.226 2.005-0.616 3.305-1.973 4.072-3.85 0.252-0.616 0.393-1.277 0.58-1.918 0.057-0.196 0.238-0.293 0.422-0.207 0.033 0.015 0.063 0.067 0.068 0.105 0.011 0.076 0.005 0.155 0.005 0.233 0 6.353-0.001 12.706 0.002 19.059 0 0.263 0.019 0.529 0.054 0.79 0.087 0.65 0.404 1.107 1.14 1.203-0.015 0.221-0.030 0.434-0.047 0.672-0.703 0.013-1.381-0.056-2.043-0.242-1.527-0.43-2.305-1.451-2.305-3.018-0.002-3.869-0.001-7.739-0.001-11.608 0-0.099 0-0.199 0-0.327z"></path>
<path d="M58.608 6.21c1.199 0 2.343-0.003 3.488 0.008 0.067 0.001 0.16 0.107 0.194 0.185 0.624 1.402 1.241 2.808 1.859 4.213 1.256 2.853 2.513 5.704 3.762 8.56 0.050 0.114 0.063 0.278 0.019 0.391-0.512 1.321-1.038 2.638-1.561 3.955-0.014 0.036-0.032 0.070-0.070 0.152-2.569-5.833-5.121-11.629-7.691-17.464z"></path>
<path d="M24.171 23.069c-2.524-5.625-5.036-11.223-7.558-16.846 0.099-0.006 0.167-0.014 0.234-0.014 1.034-0.001 2.069 0.003 3.103-0.004 0.164-0.001 0.246 0.045 0.315 0.199 1.864 4.167 3.735 8.33 5.6 12.497 0.036 0.081 0.051 0.202 0.018 0.28-0.544 1.266-1.098 2.529-1.65 3.792-0.009 0.020-0.024 0.038-0.062 0.096z"></path>
<path d="M8.222 6.209c0.487 0 0.928 0 1.369 0 0.663 0 1.327 0.005 1.99-0.004 0.16-0.002 0.232 0.050 0.296 0.194 1.865 4.167 3.736 8.332 5.601 12.499 0.037 0.081 0.052 0.202 0.019 0.279-0.541 1.26-1.092 2.515-1.64 3.772-0.012 0.027-0.028 0.052-0.068 0.125-2.526-5.629-5.036-11.223-7.567-16.865z"></path>
<path d="M38.398 5.579c0 5.504 0 10.953 0 16.421-1.058 0-2.11 0-3.177 0 0-5.258 0-10.511 0-15.791 1.103 0.018 2.192 0.010 3.177-0.63z"></path>
<path d="M48.805 22.009c-1.066 0-2.107 0-3.187 0 0-0.099 0-0.196 0-0.293 0-4.314 0.007-8.628-0.010-12.942-0.002-0.426-0.099-0.868-0.238-1.274-0.199-0.583-0.653-0.946-1.264-1.087-0.168-0.039-0.227-0.093-0.199-0.26 0.024-0.144 0.020-0.291 0.030-0.455 0.94-0.007 1.83 0.119 2.667 0.507 1.477 0.685 2.195 1.876 2.205 3.446 0.026 4.041 0.009 8.083 0.008 12.124-0 0.069-0.007 0.138-0.012 0.234z"></path>
<path d="M63.571 28.983c0.192 0.085 0.39 0.173 0.616 0.273-0.466 1.091-0.964 2.131-2.164 2.59-1.071 0.409-2.236-0.027-2.681-0.975-0.336-0.714-0.192-1.503 0.372-2.037 0.492-0.466 1.327-0.6 1.934-0.269 0.218 0.119 0.399 0.32 0.566 0.511 0.115 0.132 0.18 0.308 0.264 0.467 0.182 0.347 0.379 0.379 0.639 0.078 0.167-0.194 0.3-0.415 0.458-0.638z"></path>
<path d="M77 20.124c0.005 1.044-0.852 1.885-1.93 1.895-1.073 0.010-1.938-0.825-1.944-1.877-0.007-1.059 0.841-1.904 1.913-1.907 1.097-0.003 1.956 0.825 1.96 1.889z"></path>
<path d="M33.243 6.226c0.019 0.225 0.037 0.433 0.056 0.645-0.2 0.056-0.383 0.099-0.561 0.157-0.906 0.291-1.571 0.88-2.052 1.672-0.307 0.505-0.574 1.034-0.869 1.572-0.187-0.077-0.388-0.16-0.601-0.247 0.091-0.308 0.205-0.599 0.26-0.901 0.062-0.341 0.13-0.698 0.091-1.036-0.079-0.678-0.502-1.061-1.184-1.175-0.061-0.010-0.121-0.023-0.196-0.037 0.011-0.218 0.022-0.426 0.034-0.649 1.673-0 3.334-0 5.024-0z"></path>
<path d="M69.251 6.882c0.011-0.233 0.021-0.44 0.032-0.674 0.103 0 0.189 0 0.273 0 1.73 0 3.46 0.004 5.19-0.005 0.21-0.001 0.308 0.050 0.293 0.266-0.010 0.131-0.002 0.263-0.002 0.437-1.779 0.081-2.709 1.198-3.29 2.735-0.229-0.080-0.433-0.152-0.65-0.228 0.13-0.628 0.263-1.253-0.162-1.807-0.412-0.536-1.038-0.635-1.684-0.725z"></path>
</symbol>
<symbol id="icon-check-mark" viewBox="0 0 32 32">
<path d="M31.869 7.764l-19.841 19.841c-0.175 0.175-0.458 0.175-0.632 0l-11.266-11.266c-0.174-0.174-0.174-0.457 0-0.632l2.737-2.737c0.175-0.174 0.458-0.174 0.632 0l8.213 8.212 16.787-16.787c0.175-0.174 0.457-0.174 0.632 0l2.737 2.737c0.175 0.174 0.175 0.457 0 0.632z"></path>
</symbol>
<symbol id="icon-menu-burger" viewBox="0 0 32 32">
<path d="M6.4 11.733v-2.133h19.2v2.133h-19.2zM6.4 17.067h19.2v-2.133h-19.2v2.133zM6.4 22.4h19.2v-2.133h-19.2v2.133z"></path>
</symbol>
<symbol id="icon-footer-logo" viewBox="0 0 18 32">
<path d="M8.498 28.273v-28.273h-0.961s-0.049 7.771-7.537 9.075v0.953h3.995v17.242c0 3.128 2.061 4.711 6.139 4.711h0.053v-1.119c-1.183-0.136-1.688-0.799-1.688-2.589zM15.428 26.871c-1.374 0.054-2.468 1.182-2.468 2.565s1.094 2.51 2.463 2.564l0.005 0c1.416 0 2.565-1.148 2.565-2.565s-1.148-2.565-2.565-2.565v0z"></path>
</symbol>
<symbol id="icon-cross" viewBox="0 0 32 32">
<path d="M32 3.223l-3.223-3.223-12.777 12.777-12.777-12.777-3.223 3.223 12.777 12.777-12.777 12.777 3.223 3.223 12.777-12.777 12.777 12.777 3.223-3.223-12.777-12.777 12.777-12.777z"></path>
</symbol>
</defs>
</svg>
